<svg xmlns="http://www.w3.org/2000/svg">
    <g id="SvgjsG1060" featurekey="symbol1" fill="#ffffff" transform="matrix(0.575,0,0,0.575,1.2166748046875,1.25)">
        <path d="M57.7402344,27.6201172c-0.2861328-0.0371094-0.5683594,0.0541992-0.7822266,0.2446289  c-0.2148438,0.1894531-0.3369141,0.4619141-0.3369141,0.7480469c0,3.715332-3.0224609,6.7382812-6.7382812,6.7382812  s-6.7382812-3.0229492-6.7382812-6.7382812c0-0.2871094-0.1230469-0.5600586-0.3378906-0.75  c-0.2158203-0.1894531-0.5019531-0.277832-0.7861328-0.2421875c-0.3222656,0.0405273-7.9912109,1.090332-16.4697266,9.9155273  c-0.2744141,0.2856445-0.3544922,0.7060547-0.2041016,1.0722656l5.1630859,12.5952148  c0.1347656,0.3291016,0.4335938,0.5615234,0.7861328,0.6108398c0.3466797,0.0458984,0.703125-0.0917969,0.9238281-0.3710938  c0.6035156-0.7646484,2.3242188-2.565918,4.1181641-3.269043l-0.6591797,23.4780273  c-0.0068359,0.2700195,0.0947266,0.5317383,0.2832031,0.7250977c0.1884766,0.1938477,0.4472656,0.3027344,0.7167969,0.3027344  h0.0009766l26.7060547-0.0209961c0.2695312,0,0.5283203-0.109375,0.7158203-0.3032227  c0.1884766-0.1933594,0.2900391-0.4545898,0.2832031-0.7241211l-0.6474609-23.456543  c1.7890625,0.7036133,3.5146484,2.5043945,4.1210938,3.269043c0.2207031,0.277832,0.5664062,0.4165039,0.9238281,0.3696289  c0.3515625-0.0498047,0.6513672-0.2817383,0.7861328-0.6103516l5.1621094-12.5952148  c0.1494141-0.3662109,0.0693359-0.7866211-0.2050781-1.0722656C66.0449219,28.7089844,58.0751953,27.6601562,57.7402344,27.6201172z   M68.3154297,48.9848633c-1.2177734-1.2041016-3.2939453-2.8891602-5.5283203-3.0805664  c-0.2822266-0.0253906-0.5644531,0.0732422-0.7714844,0.2695312c-0.2070312,0.1953125-0.3212891,0.4697266-0.3134766,0.7543945  l0.6542969,23.7319336l-24.6494141,0.019043l0.6669922-23.7504883c0.0078125-0.284668-0.1064453-0.559082-0.3134766-0.7548828  c-0.1865234-0.1757812-0.4326172-0.2729492-0.6865234-0.2729492c-0.0283203,0-0.0566406,0.0009766-0.0849609,0.003418  c-2.234375,0.1914062-4.3105469,1.8764648-5.5273438,3.0805664l-4.3164062-10.527832  c6.0107422-6.0708008,11.5507812-8.0410156,13.7841797-8.6259766c0.59375,4.2441406,4.2480469,7.5200195,8.6533203,7.5200195  c4.4082031,0,8.0654297-3.28125,8.6552734-7.5302734c2.2871094,0.5712891,8.0361328,2.527832,14.0917969,8.6367188  L68.3154297,48.9848633z"></path>
        <path d="M11.0380859,12h6.625v5.5834961h-6.6064453c-0.5527344,0-1,0.4477539-1,1v61.25c0,0.5522461,0.4472656,1,1,1h1.2226562  c8.1894531,0,16.3398438,2.0083008,24.2236328,5.96875C40.7255859,88.9243164,45.2792969,90,50.0380859,90  c4.7578125,0,9.3125-1.0756836,13.5361328-3.1977539c7.8828125-3.9604492,16.0322266-5.96875,24.2226562-5.96875h1.2236328  c0.265625,0,0.5195312-0.1054688,0.7070312-0.2929688c0.1875-0.1879883,0.2929688-0.4423828,0.2929688-0.7075195l-0.0390625-61.25  c0-0.5522461-0.4482422-0.9995117-1-0.9995117h-6.5683594V12h6.625c0.5527344,0,1-0.4477539,1-1s-0.4472656-1-1-1h-78  c-0.5527344,0-1,0.4477539-1,1S10.4853516,12,11.0380859,12z M88.0195312,78.8334961H87.796875  c-8.5048828,0-16.9570312,2.0795898-25.1210938,6.1816406C58.7333984,86.9956055,54.4814453,88,50.0380859,88  s-8.6953125-1.0043945-12.6367188-2.9848633c-8.1660156-4.1020508-16.6181641-6.1816406-25.1220703-6.1816406h-0.2226562v-59.25  h75.9257812L88.0195312,78.8334961z M80.4130859,17.5834961h-60.75V12h60.75V17.5834961z"></path>
    </g>
    <g id="SvgjsG1061" featurekey="text1" fill="#ffffff" transform="matrix(1.2418137136926922,0,0,1.2418137136926922,64.57423129653293,8.434521419477765)">
        <path d="M15.88 23.54 l0 -5.34 c-0.04 -1.66 -1.36 -3.04 -3.04 -3.04 c-1.66 0 -3.02 1.38 -3.02 3.04 l0 5.34 l0 0.06 c0 0.02 -0.02 0.04 -0.02 0.04 l0 0.04 c-0.04 0.12 -0.14 0.2 -0.24 0.26 c-0.08 0.04 -0.16 0.06 -0.24 0.06 l-0.06 0 l-0.04 0 c-0.02 0 -0.04 -0.02 -0.04 -0.02 c-0.04 0 -0.08 -0.04 -0.12 -0.06 c-0.02 0 -0.04 -0.02 -0.06 -0.04 l-0.06 -0.06 c-0.02 -0.02 -0.02 -0.04 -0.04 -0.04 c0 -0.02 0 -0.02 -0.02 -0.04 c0 0 0 -0.02 -0.02 -0.04 c0 -0.02 0 -0.04 -0.02 -0.06 l0 -0.06 l0 -0.04 l0 -5.34 c0 -1.66 -1.34 -3.04 -3.02 -3.04 s-3.02 1.38 -3.02 3.04 l0 5.34 c0 0.16 -0.08 0.3 -0.22 0.38 c-0.02 0.02 -0.08 0.06 -0.12 0.06 c-0.02 0.02 -0.04 0.02 -0.08 0.02 l-0.06 0 l-0.06 0 c-0.18 -0.02 -0.34 -0.18 -0.4 -0.36 l0 -0.1 l0 -5.34 l0 -0.16 l0 -3.36 c0 -0.26 0.22 -0.46 0.46 -0.46 c0.28 0 0.48 0.2 0.48 0.46 l0 0.94 c0.72 -0.86 1.8 -1.4 3.02 -1.4 c1.52 0 2.82 0.84 3.5 2.08 c0.7 -1.24 2.02 -2.08 3.52 -2.08 c2.2 0 3.98 1.78 3.98 3.98 l0 5.34 c0 0.24 -0.2 0.46 -0.48 0.46 c-0.26 0 -0.46 -0.22 -0.46 -0.46 z M24.939999999999998 24 c-2.64 0 -4.76 -2.2 -4.76 -4.88 c0 -2.72 2.12 -4.92 4.76 -4.92 c2.52 0 4.52 2 4.72 4.56 l0 0.02 l0 0.06 c0 0.26 -0.22 0.44 -0.48 0.44 l-8.04 0 c0.1 2.14 1.78 3.76 3.8 3.76 c1.3 0 2.5 -0.68 3.16 -1.78 c0.14 -0.24 0.44 -0.28 0.64 -0.16 c0.22 0.16 0.3 0.44 0.16 0.68 c-0.84 1.34 -2.3 2.22 -3.96 2.22 z M24.939999999999998 15.16 c-1.84 0 -3.38 1.32 -3.74 3.18 l7.42 0 c-0.32 -1.84 -1.88 -3.18 -3.68 -3.18 z M36 14.2 c0.24 0 0.48 0.24 0.48 0.48 s-0.24 0.48 -0.48 0.48 l-1.26 0 l0 7.14 c0 0.48 0.48 0.72 0.72 0.72 s0.5 0.26 0.5 0.5 s-0.26 0.48 -0.5 0.48 c-0.98 0 -1.72 -0.72 -1.72 -1.7 l0 -7.14 l-1.22 0 c-0.48 0 -0.48 -0.24 -0.48 -0.48 s0 -0.48 0.48 -0.48 l1.22 0 l0 -3.64 c0 -0.24 0.24 -0.48 0.48 -0.48 c0.26 0 0.52 0.24 0.52 0.48 l0 3.64 l1.26 0 z M48.800000000000004 14.2 c0.26 0 0.48 0.2 0.48 0.48 l0 8.84 c0 0.26 -0.22 0.48 -0.48 0.48 s-0.48 -0.22 -0.48 -0.48 l0 -1.46 c-0.84 1.16 -2.18 1.94 -3.68 1.94 c-2.58 0 -4.64 -2.22 -4.64 -4.9 s2.06 -4.9 4.64 -4.9 c1.5 0 2.84 0.76 3.68 1.92 l0 -1.44 c0 -0.28 0.22 -0.48 0.48 -0.48 z M44.64 23.04 c2.02 0 3.68 -1.74 3.68 -3.94 s-1.66 -3.96 -3.68 -3.96 c-2 0 -3.68 1.76 -3.68 3.96 s1.68 3.94 3.68 3.94 z M53.28000000000001 17.44 c-0.22 0 -0.38 -0.16 -0.38 -0.4 l0 0 c0 -0.22 0.16 -0.36 0.38 -0.36 l0 0 l4.26 0 c0.2 0 0.38 0.14 0.38 0.36 l0 0 c0 0.24 -0.18 0.4 -0.38 0.4 l0 0 l-4.26 0 l0 0 z M61.60000000000001 23.52 l0 -8.82 c0 -0.28 0.22 -0.48 0.5 -0.48 c0.24 0 0.46 0.2 0.46 0.48 l0 2.16 c0.04 -0.08 0.08 -0.16 0.14 -0.24 c0.74 -1.16 2.04 -2.4 3.92 -2.4 c0.26 0 0.48 0.2 0.48 0.48 c0 0.26 -0.22 0.48 -0.48 0.48 c-1.28 0 -2.16 0.72 -2.84 1.6 c-0.66 0.88 -1.04 1.88 -1.18 2.28 c-0.04 0.08 -0.04 0.12 -0.04 0.16 l0 4.3 c0 0.28 -0.22 0.48 -0.46 0.48 c-0.28 0 -0.5 -0.2 -0.5 -0.48 z M69.92000000000002 19.1 c0 -2.66 2.08 -4.9 4.64 -4.9 l0 0 c2.58 0 4.64 2.24 4.64 4.9 l0 0 c0 2.66 -2.06 4.9 -4.64 4.9 l0 0 c-2.56 0 -4.64 -2.24 -4.64 -4.9 l0 0 z M70.88000000000001 19.1 c0 2.18 1.68 3.94 3.68 3.94 l0 0 c2 0 3.68 -1.76 3.68 -3.94 l0 0 c0 -2.18 -1.68 -3.96 -3.68 -3.96 l0 0 c-2 0 -3.68 1.78 -3.68 3.96 l0 0 z M82.42000000000002 19.1 c0 -2.66 2.08 -4.9 4.64 -4.9 l0 0 c2.58 0 4.64 2.24 4.64 4.9 l0 0 c0 2.66 -2.06 4.9 -4.64 4.9 l0 0 c-2.56 0 -4.64 -2.24 -4.64 -4.9 l0 0 z M83.38000000000001 19.1 c0 2.18 1.68 3.94 3.68 3.94 l0 0 c2 0 3.68 -1.76 3.68 -3.94 l0 0 c0 -2.18 -1.68 -3.96 -3.68 -3.96 l0 0 c-2 0 -3.68 1.78 -3.68 3.96 l0 0 z M109.4 23.54 l0 -5.34 c-0.04 -1.66 -1.36 -3.04 -3.04 -3.04 c-1.66 0 -3.02 1.38 -3.02 3.04 l0 5.34 l0 0.06 c0 0.02 -0.02 0.04 -0.02 0.04 l0 0.04 c-0.04 0.12 -0.14 0.2 -0.24 0.26 c-0.08 0.04 -0.16 0.06 -0.24 0.06 l-0.06 0 l-0.04 0 c-0.02 0 -0.04 -0.02 -0.04 -0.02 c-0.04 0 -0.08 -0.04 -0.12 -0.06 c-0.02 0 -0.04 -0.02 -0.06 -0.04 l-0.06 -0.06 c-0.02 -0.02 -0.02 -0.04 -0.04 -0.04 c0 -0.02 0 -0.02 -0.02 -0.04 c0 0 0 -0.02 -0.02 -0.04 c0 -0.02 0 -0.04 -0.02 -0.06 l0 -0.06 l0 -0.04 l0 -5.34 c0 -1.66 -1.34 -3.04 -3.02 -3.04 s-3.02 1.38 -3.02 3.04 l0 5.34 c0 0.16 -0.08 0.3 -0.22 0.38 c-0.02 0.02 -0.08 0.06 -0.12 0.06 c-0.02 0.02 -0.04 0.02 -0.08 0.02 l-0.06 0 l-0.06 0 c-0.18 -0.02 -0.34 -0.18 -0.4 -0.36 l0 -0.1 l0 -5.34 l0 -0.16 l0 -3.36 c0 -0.26 0.22 -0.46 0.46 -0.46 c0.28 0 0.48 0.2 0.48 0.46 l0 0.94 c0.72 -0.86 1.8 -1.4 3.02 -1.4 c1.52 0 2.82 0.84 3.5 2.08 c0.7 -1.24 2.02 -2.08 3.52 -2.08 c2.2 0 3.98 1.78 3.98 3.98 l0 5.34 c0 0.24 -0.2 0.46 -0.48 0.46 c-0.26 0 -0.46 -0.22 -0.46 -0.46 z"></path>
    </g>
</svg>
